# xmcd CD database file
#
# Track frame offsets:
#	150
#	8693
#	26736
#	45208
#	58520
#	70511
#	80157
#	84745
#	101244
#	110106
#	112186
#	121449
#	138712
#	147830
#	156624
#	169683
#	178974
#	192981
#	199578
#	216703
#	227874
#	248899
#	255500
#	266474
#	285483
#
# Disc length: 4450 seconds
#
# Revision: 1
# Processed by: cddbd v1.5.2PL0 Copyright (c) Steve Scherf et al.
# Submitted via: Feurio! 1.67 - http://www.feurio.com
#
DISCID=7e116019
DTITLE=Various Artist - Black and White Recorded In The Field
DYEAR=2010
DGENRE=Blues
TTITLE0=Henry Grady Terrell - Old John Henry Died On The Mountain
TTITLE1=The Chancey Brothers - I Wish I Was A Mole In The Ground
TTITLE2=Mose Parker - John Henry
TTITLE3=Silver Light Gospel Singers - Don't You Let Nobody Turn You 'round
TTITLE4=Gordon Tanner and Smokey Joe Miller - Devilish Mary
TTITLE5=James "Yank" Rachel and Shirley Griffith - Mandolin Stomp
TTITLE6=Lawrence Eller and Vaughn Eller - Down The Road
TTITLE7=Golden River Grass - Going Down The Road Feeling Bad
TTITLE8=Jake Staggers - Going Down The Road Feeling Bad
TTITLE9=Brady Doc and Lucy Barnes - Free Go Lilly
TTITLE10=Ben Entrekin and Uncle John Patterson - Flat Foot Charlie
TTITLE11=Cecil Barfield - Georgia Bottleneck Blues
TTITLE12=Lawrence McKiver and The McIntosh Country Shouters - Jubilee
TTITLE13=Mary Lomax - Lord Daniel
TTITLE14=The Balfa Brothers and Nathan Abshire - J'ai Passé Devant Ta Porte
TTITLE15=The Eller Brothers and Ross Brown - Don't Go Riding Down That Old Texas 
TTITLE15=Trail
TTITLE16=Guitar Pete Franklin - Guitar Pete's Blues
TTITLE17=Albert Hash and Art Rosenbaum - Train 45
TTITLE18=Eddie Bowles - Bowle's Blues
TTITLE19=George Childers - Nobody's Business
TTITLE20=Scrappaer Blackwell - Goin' Where The Monon Crosses The Yellow Dog
TTITLE21=Fleeta and Reverend Nathaniel Mitchell - Brother, You Ought T've Been 
TTITLE21=There
TTITLE22=Tony Bryant - Broke Down Engine
TTITLE23=Juanita and Oscar Shorty Shehan - Free Little Bird
TTITLE24=Datentrack - Video
EXTD=Live-Afnahmen von Art Rosenbaum
EXTT0=
EXTT1=
EXTT2=
EXTT3=
EXTT4=
EXTT5=
EXTT6=
EXTT7=
EXTT8=
EXTT9=
EXTT10=
EXTT11=
EXTT12=
EXTT13=
EXTT14=
EXTT15=
EXTT16=
EXTT17=
EXTT18=
EXTT19=
EXTT20=
EXTT21=
EXTT22=
EXTT23=
EXTT24=
PLAYORDER=
